<svg xmlns="http://www.w3.org/2000/svg" version="1.1" xmlns:xlink="http://www.w3.org/1999/xlink" xmlns:svgjs="http://svgjs.com/svgjs" width="288" height="288"><svg id="SvgjsSvg1002" width="288" height="288" xmlns="http://www.w3.org/2000/svg" version="1.1" xmlns:xlink="http://www.w3.org/1999/xlink" xmlns:svgjs="http://svgjs.com/svgjs"><defs id="SvgjsDefs1001"></defs><g id="SvgjsG1000"><svg xmlns="http://www.w3.org/2000/svg" width="288" height="288" viewBox="0 0 256 256"><g style="stroke:none;stroke-width:0;stroke-dasharray:none;stroke-linecap:butt;stroke-linejoin:miter;stroke-miterlimit:10;fill:none;fill-rule:nonzero;opacity:1" fill="none" stroke-miterlimit="10" stroke-width="0" transform="translate(1.964 1.964) scale(2.8008)"><path fill="#2da4df" d="M 87.994 0 H 69.342 c -1.787 0 -2.682 2.16 -1.418 3.424 l 5.795 5.795 l -33.82 33.82 L 28.056 31.196 l -3.174 -3.174 c -1.074 -1.074 -2.815 -1.074 -3.889 0 L 0.805 48.209 c -1.074 1.074 -1.074 2.815 0 3.889 l 3.174 3.174 c 1.074 1.074 2.815 1.074 3.889 0 l 15.069 -15.069 l 14.994 14.994 c 1.074 1.074 2.815 1.074 3.889 0 l 1.614 -1.614 c 0.083 -0.066 0.17 -0.125 0.247 -0.202 l 37.1 -37.1 l 5.795 5.795 C 87.84 23.34 90 22.445 90 20.658 V 2.006 C 90 0.898 89.102 0 87.994 0 z" class="color000 svgShape"></path><path fill="#2da4df" d="M65.626 37.8v49.45c0 1.519 1.231 2.75 2.75 2.75h8.782c1.519 0 2.75-1.231 2.75-2.75V23.518L65.626 37.8zM47.115 56.312V87.25c0 1.519 1.231 2.75 2.75 2.75h8.782c1.519 0 2.75-1.231 2.75-2.75V42.03L47.115 56.312zM39.876 60.503c-1.937 0-3.757-.754-5.127-2.124l-6.146-6.145V87.25c0 1.519 1.231 2.75 2.75 2.75h8.782c1.519 0 2.75-1.231 2.75-2.75V59.844C41.952 60.271 40.933 60.503 39.876 60.503zM22.937 46.567L11.051 58.453c-.298.298-.621.562-.959.8V87.25c0 1.519 1.231 2.75 2.75 2.75h8.782c1.519 0 2.75-1.231 2.75-2.75V48.004L22.937 46.567z" class="color000 svgShape"></path></g></svg></g></svg><style>@media (prefers-color-scheme: light) { :root { filter: none; } }
</style></svg>